<mxfile host="app.diagrams.net" modified="2023-02-03T12:29:46.463Z" agent="5.0 (Windows NT 10.0; Win64; x64) AppleWebKit/537.36 (KHTML, like Gecko) Chrome/109.0.0.0 Safari/537.36" etag="tHM2i4quy1c0VqIeHg2Z" version="20.8.13" type="github">
  <diagram id="C5RBs43oDa-KdzZeNtuy" name="Page-1">
    <mxGraphModel dx="1434" dy="1933" grid="1" gridSize="10" guides="1" tooltips="1" connect="1" arrows="1" fold="1" page="1" pageScale="1" pageWidth="827" pageHeight="1169" math="0" shadow="0">
      <root>
        <mxCell id="WIyWlLk6GJQsqaUBKTNV-0" />
        <mxCell id="WIyWlLk6GJQsqaUBKTNV-1" parent="WIyWlLk6GJQsqaUBKTNV-0" />
        <mxCell id="2qP6oekvcnaRfAC5y9Vx-4" value="" style="edgeStyle=orthogonalEdgeStyle;rounded=0;orthogonalLoop=1;jettySize=auto;html=1;" edge="1" parent="WIyWlLk6GJQsqaUBKTNV-1" source="2qP6oekvcnaRfAC5y9Vx-0" target="2qP6oekvcnaRfAC5y9Vx-3">
          <mxGeometry relative="1" as="geometry" />
        </mxCell>
        <mxCell id="2qP6oekvcnaRfAC5y9Vx-0" value="Start" style="ellipse;whiteSpace=wrap;html=1;" vertex="1" parent="WIyWlLk6GJQsqaUBKTNV-1">
          <mxGeometry x="130" y="50" width="120" height="80" as="geometry" />
        </mxCell>
        <mxCell id="2qP6oekvcnaRfAC5y9Vx-7" value="" style="edgeStyle=orthogonalEdgeStyle;rounded=0;orthogonalLoop=1;jettySize=auto;html=1;" edge="1" parent="WIyWlLk6GJQsqaUBKTNV-1" source="2qP6oekvcnaRfAC5y9Vx-3" target="2qP6oekvcnaRfAC5y9Vx-6">
          <mxGeometry relative="1" as="geometry" />
        </mxCell>
        <mxCell id="2qP6oekvcnaRfAC5y9Vx-3" value="ara[] = {-100, 0, 53, 22, 83, 2, 89, -132, 201, 3, 85}&lt;br&gt;n = 11" style="whiteSpace=wrap;html=1;" vertex="1" parent="WIyWlLk6GJQsqaUBKTNV-1">
          <mxGeometry x="130" y="180" width="120" height="60" as="geometry" />
        </mxCell>
        <mxCell id="2qP6oekvcnaRfAC5y9Vx-12" value="" style="edgeStyle=orthogonalEdgeStyle;rounded=0;orthogonalLoop=1;jettySize=auto;html=1;" edge="1" parent="WIyWlLk6GJQsqaUBKTNV-1" source="2qP6oekvcnaRfAC5y9Vx-6" target="2qP6oekvcnaRfAC5y9Vx-11">
          <mxGeometry relative="1" as="geometry" />
        </mxCell>
        <mxCell id="2qP6oekvcnaRfAC5y9Vx-6" value="max = find_max(ara, n)" style="whiteSpace=wrap;html=1;" vertex="1" parent="WIyWlLk6GJQsqaUBKTNV-1">
          <mxGeometry x="130" y="280" width="120" height="60" as="geometry" />
        </mxCell>
        <mxCell id="2qP6oekvcnaRfAC5y9Vx-10" style="edgeStyle=orthogonalEdgeStyle;rounded=0;orthogonalLoop=1;jettySize=auto;html=1;exitX=0;exitY=0.5;exitDx=0;exitDy=0;entryX=1;entryY=0.5;entryDx=0;entryDy=0;" edge="1" parent="WIyWlLk6GJQsqaUBKTNV-1" source="2qP6oekvcnaRfAC5y9Vx-8" target="2qP6oekvcnaRfAC5y9Vx-6">
          <mxGeometry relative="1" as="geometry" />
        </mxCell>
        <mxCell id="2qP6oekvcnaRfAC5y9Vx-8" value="int find_max(int ara[], n)" style="rounded=0;whiteSpace=wrap;html=1;" vertex="1" parent="WIyWlLk6GJQsqaUBKTNV-1">
          <mxGeometry x="340" y="280" width="120" height="60" as="geometry" />
        </mxCell>
        <mxCell id="2qP6oekvcnaRfAC5y9Vx-14" value="" style="edgeStyle=orthogonalEdgeStyle;rounded=0;orthogonalLoop=1;jettySize=auto;html=1;" edge="1" parent="WIyWlLk6GJQsqaUBKTNV-1" source="2qP6oekvcnaRfAC5y9Vx-11" target="2qP6oekvcnaRfAC5y9Vx-13">
          <mxGeometry relative="1" as="geometry" />
        </mxCell>
        <mxCell id="2qP6oekvcnaRfAC5y9Vx-11" value="write max" style="shape=parallelogram;perimeter=parallelogramPerimeter;whiteSpace=wrap;html=1;fixedSize=1;" vertex="1" parent="WIyWlLk6GJQsqaUBKTNV-1">
          <mxGeometry x="130" y="380" width="120" height="60" as="geometry" />
        </mxCell>
        <mxCell id="2qP6oekvcnaRfAC5y9Vx-13" value="End" style="ellipse;whiteSpace=wrap;html=1;" vertex="1" parent="WIyWlLk6GJQsqaUBKTNV-1">
          <mxGeometry x="115" y="480" width="150" height="90" as="geometry" />
        </mxCell>
        <mxCell id="2qP6oekvcnaRfAC5y9Vx-17" value="" style="edgeStyle=orthogonalEdgeStyle;rounded=0;orthogonalLoop=1;jettySize=auto;html=1;" edge="1" parent="WIyWlLk6GJQsqaUBKTNV-1" source="2qP6oekvcnaRfAC5y9Vx-15" target="2qP6oekvcnaRfAC5y9Vx-16">
          <mxGeometry relative="1" as="geometry" />
        </mxCell>
        <mxCell id="2qP6oekvcnaRfAC5y9Vx-15" value="" style="ellipse;whiteSpace=wrap;html=1;" vertex="1" parent="WIyWlLk6GJQsqaUBKTNV-1">
          <mxGeometry x="580" y="70" width="190" height="90" as="geometry" />
        </mxCell>
        <mxCell id="2qP6oekvcnaRfAC5y9Vx-16" value="int find_max" style="whiteSpace=wrap;html=1;" vertex="1" parent="WIyWlLk6GJQsqaUBKTNV-1">
          <mxGeometry x="615" y="-60" width="120" height="60" as="geometry" />
        </mxCell>
      </root>
    </mxGraphModel>
  </diagram>
</mxfile>
